<svg width="214" height="89" viewBox="0 0 214 89" fill="none" xmlns="http://www.w3.org/2000/svg">
<g filter="url(#filter0_d_13_888)">
<path fill-rule="evenodd" clip-rule="evenodd" d="M50.1328 16.6577L46.2479 21.0069L42.3631 16.6577C40.8578 14.9725 38.7449 14 36.4662 14C32.0643 14 28.4958 17.6363 28.4958 22.1219V41.3363C28.4958 45.8219 32.0643 49.4582 36.4662 49.4582C38.7449 49.4582 40.8578 48.4857 42.3631 46.8006L46.2479 42.4513L50.1328 46.8006C51.638 48.4857 53.7509 49.4582 56.0297 49.4582C60.4316 49.4582 64 45.8219 64 41.3363V22.1219C64 17.6363 60.4316 14 56.0297 14C53.7509 14 51.638 14.9725 50.1328 16.6577Z" stroke="url(#paint0_linear_13_888)" stroke-width="12.0999"/>
</g>
<path d="M82.14 48V41H84.99C85.7367 41 86.39 41.15 86.95 41.45C87.5167 41.7433 87.9567 42.1533 88.27 42.68C88.5833 43.2067 88.74 43.8133 88.74 44.5C88.74 45.1867 88.5833 45.7933 88.27 46.32C87.9567 46.8467 87.5167 47.26 86.95 47.56C86.39 47.8533 85.7367 48 84.99 48H82.14ZM82.88 47.36H84.95C85.57 47.36 86.1067 47.24 86.56 47C87.02 46.7533 87.3767 46.4167 87.63 45.99C87.8833 45.5567 88.01 45.06 88.01 44.5C88.01 43.9333 87.8833 43.4367 87.63 43.01C87.3767 42.5833 87.02 42.25 86.56 42.01C86.1067 41.7633 85.57 41.64 84.95 41.64H82.88V47.36ZM90.2517 48V42.75H90.9617V48H90.2517ZM90.6117 41.59C90.4651 41.59 90.3417 41.54 90.2417 41.44C90.1417 41.34 90.0917 41.22 90.0917 41.08C90.0917 40.94 90.1417 40.8233 90.2417 40.73C90.3417 40.63 90.4651 40.58 90.6117 40.58C90.7584 40.58 90.8817 40.6267 90.9817 40.72C91.0817 40.8133 91.1317 40.93 91.1317 41.07C91.1317 41.2167 91.0817 41.34 90.9817 41.44C90.8884 41.54 90.7651 41.59 90.6117 41.59ZM94.2873 48L91.9573 42.75H92.6973L94.8373 47.62H94.4873L96.6573 42.75H97.3573L95.0173 48H94.2873ZM100.441 48.05C99.894 48.05 99.414 47.9367 99.0007 47.71C98.5874 47.4767 98.264 47.16 98.0307 46.76C97.7974 46.3533 97.6807 45.89 97.6807 45.37C97.6807 44.85 97.7907 44.39 98.0107 43.99C98.2374 43.59 98.544 43.2767 98.9307 43.05C99.324 42.8167 99.764 42.7 100.251 42.7C100.744 42.7 101.181 42.8133 101.561 43.04C101.947 43.26 102.251 43.5733 102.471 43.98C102.691 44.38 102.801 44.8433 102.801 45.37C102.801 45.4033 102.797 45.44 102.791 45.48C102.791 45.5133 102.791 45.55 102.791 45.59H98.2207V45.06H102.411L102.131 45.27C102.131 44.89 102.047 44.5533 101.881 44.26C101.721 43.96 101.501 43.7267 101.221 43.56C100.941 43.3933 100.617 43.31 100.251 43.31C99.8907 43.31 99.5674 43.3933 99.2807 43.56C98.994 43.7267 98.7707 43.96 98.6107 44.26C98.4507 44.56 98.3707 44.9033 98.3707 45.29V45.4C98.3707 45.8 98.4574 46.1533 98.6307 46.46C98.8107 46.76 99.0574 46.9967 99.3707 47.17C99.6907 47.3367 100.054 47.42 100.461 47.42C100.781 47.42 101.077 47.3633 101.351 47.25C101.631 47.1367 101.871 46.9633 102.071 46.73L102.471 47.19C102.237 47.47 101.944 47.6833 101.591 47.83C101.244 47.9767 100.861 48.05 100.441 48.05ZM107.013 48V41H107.753V48H107.013ZM112.561 42.7C112.987 42.7 113.361 42.7833 113.681 42.95C114.007 43.11 114.261 43.3567 114.441 43.69C114.627 44.0233 114.721 44.4433 114.721 44.95V48H114.011V45.02C114.011 44.4667 113.871 44.05 113.591 43.77C113.317 43.4833 112.931 43.34 112.431 43.34C112.057 43.34 111.731 43.4167 111.451 43.57C111.177 43.7167 110.964 43.9333 110.811 44.22C110.664 44.5 110.591 44.84 110.591 45.24V48H109.881V42.75H110.561V44.19L110.451 43.92C110.617 43.54 110.884 43.2433 111.251 43.03C111.617 42.81 112.054 42.7 112.561 42.7ZM120.766 48V41.64H118.306V41H123.966V41.64H121.506V48H120.766ZM127.678 42.7C128.104 42.7 128.478 42.7833 128.798 42.95C129.124 43.11 129.378 43.3567 129.558 43.69C129.744 44.0233 129.838 44.4433 129.838 44.95V48H129.128V45.02C129.128 44.4667 128.988 44.05 128.708 43.77C128.434 43.4833 128.048 43.34 127.548 43.34C127.174 43.34 126.848 43.4167 126.568 43.57C126.294 43.7167 126.081 43.9333 125.928 44.22C125.781 44.5 125.708 44.84 125.708 45.24V48H124.998V40.58H125.708V44.19L125.568 43.92C125.734 43.54 126.001 43.2433 126.368 43.03C126.734 42.81 127.171 42.7 127.678 42.7ZM133.986 48.05C133.439 48.05 132.959 47.9367 132.546 47.71C132.132 47.4767 131.809 47.16 131.576 46.76C131.342 46.3533 131.226 45.89 131.226 45.37C131.226 44.85 131.336 44.39 131.556 43.99C131.782 43.59 132.089 43.2767 132.476 43.05C132.869 42.8167 133.309 42.7 133.796 42.7C134.289 42.7 134.726 42.8133 135.106 43.04C135.492 43.26 135.796 43.5733 136.016 43.98C136.236 44.38 136.346 44.8433 136.346 45.37C136.346 45.4033 136.342 45.44 136.336 45.48C136.336 45.5133 136.336 45.55 136.336 45.59H131.766V45.06H135.956L135.676 45.27C135.676 44.89 135.592 44.5533 135.426 44.26C135.266 43.96 135.046 43.7267 134.766 43.56C134.486 43.3933 134.162 43.31 133.796 43.31C133.436 43.31 133.112 43.3933 132.826 43.56C132.539 43.7267 132.316 43.96 132.156 44.26C131.996 44.56 131.916 44.9033 131.916 45.29V45.4C131.916 45.8 132.002 46.1533 132.176 46.46C132.356 46.76 132.602 46.9967 132.916 47.17C133.236 47.3367 133.599 47.42 134.006 47.42C134.326 47.42 134.622 47.3633 134.896 47.25C135.176 47.1367 135.416 46.9633 135.616 46.73L136.016 47.19C135.782 47.47 135.489 47.6833 135.136 47.83C134.789 47.9767 134.406 48.05 133.986 48.05ZM143.598 48.06C143.071 48.06 142.585 47.9733 142.138 47.8C141.691 47.62 141.305 47.37 140.978 47.05C140.651 46.73 140.395 46.3533 140.208 45.92C140.028 45.4867 139.938 45.0133 139.938 44.5C139.938 43.9867 140.028 43.5133 140.208 43.08C140.395 42.6467 140.651 42.27 140.978 41.95C141.311 41.63 141.701 41.3833 142.148 41.21C142.595 41.03 143.081 40.94 143.608 40.94C144.115 40.94 144.591 41.0267 145.038 41.2C145.485 41.3667 145.861 41.62 146.168 41.96L145.698 42.43C145.411 42.1367 145.095 41.9267 144.748 41.8C144.401 41.6667 144.028 41.6 143.628 41.6C143.208 41.6 142.818 41.6733 142.458 41.82C142.098 41.96 141.785 42.1633 141.518 42.43C141.251 42.69 141.041 42.9967 140.888 43.35C140.741 43.6967 140.668 44.08 140.668 44.5C140.668 44.92 140.741 45.3067 140.888 45.66C141.041 46.0067 141.251 46.3133 141.518 46.58C141.785 46.84 142.098 47.0433 142.458 47.19C142.818 47.33 143.208 47.4 143.628 47.4C144.028 47.4 144.401 47.3333 144.748 47.2C145.095 47.0667 145.411 46.8533 145.698 46.56L146.168 47.03C145.861 47.37 145.485 47.6267 145.038 47.8C144.591 47.9733 144.111 48.06 143.598 48.06ZM147.595 48V40.58H148.305V48H147.595ZM152.451 48.05C152.004 48.05 151.614 47.9667 151.281 47.8C150.948 47.6333 150.688 47.3833 150.501 47.05C150.321 46.7167 150.231 46.3 150.231 45.8V42.75H150.941V45.72C150.941 46.28 151.078 46.7033 151.351 46.99C151.631 47.27 152.021 47.41 152.521 47.41C152.888 47.41 153.204 47.3367 153.471 47.19C153.744 47.0367 153.951 46.8167 154.091 46.53C154.238 46.2433 154.311 45.9 154.311 45.5V42.75H155.021V48H154.341V46.56L154.451 46.82C154.284 47.2067 154.024 47.51 153.671 47.73C153.324 47.9433 152.918 48.05 152.451 48.05ZM159.71 48.05C159.25 48.05 158.836 47.9467 158.47 47.74C158.103 47.5267 157.813 47.22 157.6 46.82C157.386 46.42 157.28 45.9367 157.28 45.37C157.28 44.7967 157.386 44.3133 157.6 43.92C157.82 43.52 158.113 43.2167 158.48 43.01C158.846 42.8033 159.256 42.7 159.71 42.7C160.21 42.7 160.656 42.8133 161.05 43.04C161.45 43.26 161.763 43.57 161.99 43.97C162.216 44.37 162.33 44.8367 162.33 45.37C162.33 45.8967 162.216 46.3633 161.99 46.77C161.763 47.17 161.45 47.4833 161.05 47.71C160.656 47.9367 160.21 48.05 159.71 48.05ZM157 48V40.58H157.71V44.3L157.61 45.36L157.68 46.42V48H157ZM159.66 47.42C160.033 47.42 160.366 47.3367 160.66 47.17C160.953 46.9967 161.186 46.7567 161.36 46.45C161.533 46.1367 161.62 45.7767 161.62 45.37C161.62 44.9567 161.533 44.5967 161.36 44.29C161.186 43.9833 160.953 43.7467 160.66 43.58C160.366 43.4067 160.033 43.32 159.66 43.32C159.286 43.32 158.95 43.4067 158.65 43.58C158.356 43.7467 158.123 43.9833 157.95 44.29C157.783 44.5967 157.7 44.9567 157.7 45.37C157.7 45.7767 157.783 46.1367 157.95 46.45C158.123 46.7567 158.356 46.9967 158.65 47.17C158.95 47.3367 159.286 47.42 159.66 47.42ZM169.364 48.06C168.471 48.06 167.768 47.8033 167.254 47.29C166.741 46.7767 166.484 46.0167 166.484 45.01V41H167.224V44.98C167.224 45.8067 167.411 46.4167 167.784 46.81C168.158 47.2033 168.684 47.4 169.364 47.4C170.051 47.4 170.581 47.2033 170.954 46.81C171.328 46.4167 171.514 45.8067 171.514 44.98V41H172.234V45.01C172.234 46.0167 171.978 46.7767 171.464 47.29C170.958 47.8033 170.258 48.06 169.364 48.06ZM176.994 42.7C177.421 42.7 177.794 42.7833 178.114 42.95C178.441 43.11 178.694 43.3567 178.874 43.69C179.061 44.0233 179.154 44.4433 179.154 44.95V48H178.444V45.02C178.444 44.4667 178.304 44.05 178.024 43.77C177.751 43.4833 177.364 43.34 176.864 43.34C176.491 43.34 176.164 43.4167 175.884 43.57C175.611 43.7167 175.398 43.9333 175.244 44.22C175.098 44.5 175.024 44.84 175.024 45.24V48H174.314V42.75H174.994V44.19L174.884 43.92C175.051 43.54 175.318 43.2433 175.684 43.03C176.051 42.81 176.488 42.7 176.994 42.7ZM181.072 48V42.75H181.782V48H181.072ZM181.432 41.59C181.285 41.59 181.162 41.54 181.062 41.44C180.962 41.34 180.912 41.22 180.912 41.08C180.912 40.94 180.962 40.8233 181.062 40.73C181.162 40.63 181.285 40.58 181.432 40.58C181.579 40.58 181.702 40.6267 181.802 40.72C181.902 40.8133 181.952 40.93 181.952 41.07C181.952 41.2167 181.902 41.34 181.802 41.44C181.709 41.54 181.585 41.59 181.432 41.59ZM185.108 48L182.778 42.75H183.518L185.658 47.62H185.308L187.478 42.75H188.178L185.838 48H185.108ZM191.261 48.05C190.714 48.05 190.234 47.9367 189.821 47.71C189.408 47.4767 189.084 47.16 188.851 46.76C188.618 46.3533 188.501 45.89 188.501 45.37C188.501 44.85 188.611 44.39 188.831 43.99C189.058 43.59 189.364 43.2767 189.751 43.05C190.144 42.8167 190.584 42.7 191.071 42.7C191.564 42.7 192.001 42.8133 192.381 43.04C192.768 43.26 193.071 43.5733 193.291 43.98C193.511 44.38 193.621 44.8433 193.621 45.37C193.621 45.4033 193.618 45.44 193.611 45.48C193.611 45.5133 193.611 45.55 193.611 45.59H189.041V45.06H193.231L192.951 45.27C192.951 44.89 192.868 44.5533 192.701 44.26C192.541 43.96 192.321 43.7267 192.041 43.56C191.761 43.3933 191.438 43.31 191.071 43.31C190.711 43.31 190.388 43.3933 190.101 43.56C189.814 43.7267 189.591 43.96 189.431 44.26C189.271 44.56 189.191 44.9033 189.191 45.29V45.4C189.191 45.8 189.278 46.1533 189.451 46.46C189.631 46.76 189.878 46.9967 190.191 47.17C190.511 47.3367 190.874 47.42 191.281 47.42C191.601 47.42 191.898 47.3633 192.171 47.25C192.451 47.1367 192.691 46.9633 192.891 46.73L193.291 47.19C193.058 47.47 192.764 47.6833 192.411 47.83C192.064 47.9767 191.681 48.05 191.261 48.05ZM195.066 48V42.75H195.746V44.18L195.676 43.93C195.823 43.53 196.07 43.2267 196.416 43.02C196.763 42.8067 197.193 42.7 197.706 42.7V43.39C197.68 43.39 197.653 43.39 197.626 43.39C197.6 43.3833 197.573 43.38 197.546 43.38C196.993 43.38 196.56 43.55 196.246 43.89C195.933 44.2233 195.776 44.7 195.776 45.32V48H195.066ZM200.47 48.05C200.037 48.05 199.627 47.99 199.24 47.87C198.854 47.7433 198.55 47.5867 198.33 47.4L198.65 46.84C198.864 47 199.137 47.14 199.47 47.26C199.804 47.3733 200.154 47.43 200.52 47.43C201.02 47.43 201.38 47.3533 201.6 47.2C201.82 47.04 201.93 46.83 201.93 46.57C201.93 46.3767 201.867 46.2267 201.74 46.12C201.62 46.0067 201.46 45.9233 201.26 45.87C201.06 45.81 200.837 45.76 200.59 45.72C200.344 45.68 200.097 45.6333 199.85 45.58C199.61 45.5267 199.39 45.45 199.19 45.35C198.99 45.2433 198.827 45.1 198.7 44.92C198.58 44.74 198.52 44.5 198.52 44.2C198.52 43.9133 198.6 43.6567 198.76 43.43C198.92 43.2033 199.154 43.0267 199.46 42.9C199.774 42.7667 200.154 42.7 200.6 42.7C200.94 42.7 201.28 42.7467 201.62 42.84C201.96 42.9267 202.24 43.0433 202.46 43.19L202.15 43.76C201.917 43.6 201.667 43.4867 201.4 43.42C201.134 43.3467 200.867 43.31 200.6 43.31C200.127 43.31 199.777 43.3933 199.55 43.56C199.33 43.72 199.22 43.9267 199.22 44.18C199.22 44.38 199.28 44.5367 199.4 44.65C199.527 44.7633 199.69 44.8533 199.89 44.92C200.097 44.98 200.32 45.03 200.56 45.07C200.807 45.11 201.05 45.16 201.29 45.22C201.537 45.2733 201.76 45.35 201.96 45.45C202.167 45.5433 202.33 45.68 202.45 45.86C202.577 46.0333 202.64 46.2633 202.64 46.55C202.64 46.8567 202.554 47.1233 202.38 47.35C202.214 47.57 201.967 47.7433 201.64 47.87C201.32 47.99 200.93 48.05 200.47 48.05ZM206.173 48.05C205.626 48.05 205.146 47.9367 204.733 47.71C204.32 47.4767 203.996 47.16 203.763 46.76C203.53 46.3533 203.413 45.89 203.413 45.37C203.413 44.85 203.523 44.39 203.743 43.99C203.97 43.59 204.276 43.2767 204.663 43.05C205.056 42.8167 205.496 42.7 205.983 42.7C206.476 42.7 206.913 42.8133 207.293 43.04C207.68 43.26 207.983 43.5733 208.203 43.98C208.423 44.38 208.533 44.8433 208.533 45.37C208.533 45.4033 208.53 45.44 208.523 45.48C208.523 45.5133 208.523 45.55 208.523 45.59H203.953V45.06H208.143L207.863 45.27C207.863 44.89 207.78 44.5533 207.613 44.26C207.453 43.96 207.233 43.7267 206.953 43.56C206.673 43.3933 206.35 43.31 205.983 43.31C205.623 43.31 205.3 43.3933 205.013 43.56C204.726 43.7267 204.503 43.96 204.343 44.26C204.183 44.56 204.103 44.9033 204.103 45.29V45.4C204.103 45.8 204.19 46.1533 204.363 46.46C204.543 46.76 204.79 46.9967 205.103 47.17C205.423 47.3367 205.786 47.42 206.193 47.42C206.513 47.42 206.81 47.3633 207.083 47.25C207.363 47.1367 207.603 46.9633 207.803 46.73L208.203 47.19C207.97 47.47 207.676 47.6833 207.323 47.83C206.976 47.9767 206.593 48.05 206.173 48.05Z" fill="black"/>
<path d="M87.688 35.192C86.5467 35.192 85.512 34.9467 84.584 34.456C83.6667 33.9547 82.9413 33.2667 82.408 32.392C81.8853 31.5067 81.624 30.5093 81.624 29.4C81.624 28.2907 81.8853 27.2987 82.408 26.424C82.9413 25.5387 83.6667 24.8507 84.584 24.36C85.512 23.8587 86.552 23.608 87.704 23.608C88.6747 23.608 89.5493 23.7787 90.328 24.12C91.1173 24.4613 91.7787 24.952 92.312 25.592L90.648 27.128C89.8907 26.2533 88.952 25.816 87.832 25.816C87.1387 25.816 86.52 25.9707 85.976 26.28C85.432 26.5787 85.0053 27 84.696 27.544C84.3973 28.088 84.248 28.7067 84.248 29.4C84.248 30.0933 84.3973 30.712 84.696 31.256C85.0053 31.8 85.432 32.2267 85.976 32.536C86.52 32.8347 87.1387 32.984 87.832 32.984C88.952 32.984 89.8907 32.5413 90.648 31.656L92.312 33.192C91.7787 33.8427 91.1173 34.3387 90.328 34.68C89.5387 35.0213 88.6587 35.192 87.688 35.192ZM96.9744 35.128C96.0037 35.128 95.2464 34.872 94.7024 34.36C94.1584 33.8373 93.8864 33.1013 93.8864 32.152V23.128H96.3824V32.008C96.3824 32.3707 96.473 32.6533 96.6544 32.856C96.8464 33.048 97.113 33.144 97.4544 33.144C97.5824 33.144 97.7104 33.128 97.8384 33.096C97.977 33.064 98.0837 33.0267 98.1584 32.984L98.2704 34.92C97.8544 35.0587 97.4224 35.128 96.9744 35.128ZM108.168 26.392V35H105.8V33.976C105.469 34.3493 105.074 34.6373 104.616 34.84C104.157 35.032 103.661 35.128 103.128 35.128C101.997 35.128 101.101 34.8027 100.44 34.152C99.7784 33.5013 99.4478 32.536 99.4478 31.256V26.392H101.944V30.888C101.944 32.2747 102.525 32.968 103.688 32.968C104.285 32.968 104.765 32.776 105.128 32.392C105.49 31.9973 105.672 31.416 105.672 30.648V26.392H108.168ZM115.568 26.264C116.368 26.264 117.093 26.4507 117.744 26.824C118.405 27.1867 118.923 27.704 119.296 28.376C119.669 29.0373 119.856 29.8107 119.856 30.696C119.856 31.5813 119.669 32.36 119.296 33.032C118.923 33.6933 118.405 34.2107 117.744 34.584C117.093 34.9467 116.368 35.128 115.568 35.128C114.384 35.128 113.483 34.7547 112.864 34.008V35H110.48V23.128H112.976V27.304C113.605 26.6107 114.469 26.264 115.568 26.264ZM115.136 33.08C115.776 33.08 116.299 32.8667 116.704 32.44C117.12 32.0027 117.328 31.4213 117.328 30.696C117.328 29.9707 117.12 29.3947 116.704 28.968C116.299 28.5307 115.776 28.312 115.136 28.312C114.496 28.312 113.968 28.5307 113.552 28.968C113.147 29.3947 112.944 29.9707 112.944 30.696C112.944 31.4213 113.147 32.0027 113.552 32.44C113.968 32.8667 114.496 33.08 115.136 33.08ZM121.703 23.8H126.791C128.007 23.8 129.079 24.0347 130.007 24.504C130.946 24.9627 131.671 25.6133 132.183 26.456C132.706 27.2987 132.967 28.28 132.967 29.4C132.967 30.52 132.706 31.5013 132.183 32.344C131.671 33.1867 130.946 33.8427 130.007 34.312C129.079 34.7707 128.007 35 126.791 35H121.703V23.8ZM126.663 32.872C127.783 32.872 128.674 32.5627 129.335 31.944C130.007 31.3147 130.343 30.4667 130.343 29.4C130.343 28.3333 130.007 27.4907 129.335 26.872C128.674 26.2427 127.783 25.928 126.663 25.928H124.295V32.872H126.663ZM139.082 33.128C139.53 33.128 139.924 33.064 140.266 32.936C140.618 32.7973 140.943 32.584 141.242 32.296L142.57 33.736C141.759 34.664 140.575 35.128 139.018 35.128C138.047 35.128 137.188 34.9413 136.442 34.568C135.695 34.184 135.119 33.656 134.714 32.984C134.308 32.312 134.106 31.5493 134.106 30.696C134.106 29.8533 134.303 29.096 134.698 28.424C135.103 27.7413 135.652 27.2133 136.346 26.84C137.05 26.456 137.839 26.264 138.714 26.264C139.535 26.264 140.282 26.44 140.954 26.792C141.626 27.1333 142.159 27.6347 142.554 28.296C142.959 28.9467 143.162 29.72 143.162 30.616L136.794 31.848C136.975 32.2747 137.258 32.5947 137.642 32.808C138.036 33.0213 138.516 33.128 139.082 33.128ZM138.714 28.152C138.084 28.152 137.572 28.3547 137.178 28.76C136.783 29.1653 136.575 29.7253 136.554 30.44L140.746 29.624C140.628 29.176 140.388 28.8187 140.026 28.552C139.663 28.2853 139.226 28.152 138.714 28.152ZM150.072 26.264C151.138 26.264 151.997 26.584 152.648 27.224C153.309 27.864 153.64 28.8133 153.64 30.072V35H151.144V30.456C151.144 29.7733 150.994 29.2667 150.696 28.936C150.397 28.5947 149.965 28.424 149.4 28.424C148.77 28.424 148.269 28.6213 147.896 29.016C147.522 29.4 147.336 29.976 147.336 30.744V35H144.84V26.392H147.224V27.4C147.554 27.0373 147.965 26.76 148.456 26.568C148.946 26.3653 149.485 26.264 150.072 26.264Z" fill="black"/>
<path d="M163.373 30.724C163.733 30.838 164.015 31.03 164.219 31.3C164.423 31.564 164.525 31.891 164.525 32.281C164.525 32.833 164.309 33.259 163.877 33.559C163.451 33.853 162.827 34 162.005 34H158.747V27.7H161.825C162.593 27.7 163.181 27.847 163.589 28.141C164.003 28.435 164.21 28.834 164.21 29.338C164.21 29.644 164.135 29.917 163.985 30.157C163.841 30.397 163.637 30.586 163.373 30.724ZM160.196 28.798V30.283H161.645C162.005 30.283 162.278 30.22 162.464 30.094C162.65 29.968 162.743 29.782 162.743 29.536C162.743 29.29 162.65 29.107 162.464 28.987C162.278 28.861 162.005 28.798 161.645 28.798H160.196ZM161.897 32.902C162.281 32.902 162.569 32.839 162.761 32.713C162.959 32.587 163.058 32.392 163.058 32.128C163.058 31.606 162.671 31.345 161.897 31.345H160.196V32.902H161.897ZM167.969 32.947C168.221 32.947 168.443 32.911 168.635 32.839C168.833 32.761 169.016 32.641 169.184 32.479L169.931 33.289C169.475 33.811 168.809 34.072 167.933 34.072C167.387 34.072 166.904 33.967 166.484 33.757C166.064 33.541 165.74 33.244 165.512 32.866C165.284 32.488 165.17 32.059 165.17 31.579C165.17 31.105 165.281 30.679 165.503 30.301C165.731 29.917 166.04 29.62 166.43 29.41C166.826 29.194 167.27 29.086 167.762 29.086C168.224 29.086 168.644 29.185 169.022 29.383C169.4 29.575 169.7 29.857 169.922 30.229C170.15 30.595 170.264 31.03 170.264 31.534L166.682 32.227C166.784 32.467 166.943 32.647 167.159 32.767C167.381 32.887 167.651 32.947 167.969 32.947ZM167.762 30.148C167.408 30.148 167.12 30.262 166.898 30.49C166.676 30.718 166.559 31.033 166.547 31.435L168.905 30.976C168.839 30.724 168.704 30.523 168.5 30.373C168.296 30.223 168.05 30.148 167.762 30.148ZM174.124 33.766C173.986 33.868 173.815 33.946 173.611 34C173.413 34.048 173.206 34.072 172.99 34.072C172.408 34.072 171.961 33.925 171.649 33.631C171.337 33.337 171.181 32.905 171.181 32.335V28.087H172.585V29.266H173.782V30.346H172.585V32.317C172.585 32.521 172.636 32.68 172.738 32.794C172.84 32.902 172.987 32.956 173.179 32.956C173.395 32.956 173.587 32.896 173.755 32.776L174.124 33.766ZM179.681 29.158V34H178.34V33.442C177.992 33.862 177.488 34.072 176.828 34.072C176.372 34.072 175.958 33.97 175.586 33.766C175.22 33.562 174.932 33.271 174.722 32.893C174.512 32.515 174.407 32.077 174.407 31.579C174.407 31.081 174.512 30.643 174.722 30.265C174.932 29.887 175.22 29.596 175.586 29.392C175.958 29.188 176.372 29.086 176.828 29.086C177.446 29.086 177.929 29.281 178.277 29.671V29.158H179.681ZM177.071 32.92C177.425 32.92 177.719 32.8 177.953 32.56C178.187 32.314 178.304 31.987 178.304 31.579C178.304 31.171 178.187 30.847 177.953 30.607C177.719 30.361 177.425 30.238 177.071 30.238C176.711 30.238 176.414 30.361 176.18 30.607C175.946 30.847 175.829 31.171 175.829 31.579C175.829 31.987 175.946 32.314 176.18 32.56C176.414 32.8 176.711 32.92 177.071 32.92Z" fill="black"/>
<defs>
<filter id="filter0_d_13_888" x="18.4459" y="7.95007" width="55.604" height="55.5581" filterUnits="userSpaceOnUse" color-interpolation-filters="sRGB">
<feFlood flood-opacity="0" result="BackgroundImageFix"/>
<feColorMatrix in="SourceAlpha" type="matrix" values="0 0 0 0 0 0 0 0 0 0 0 0 0 0 0 0 0 0 127 0" result="hardAlpha"/>
<feOffset dy="4"/>
<feGaussianBlur stdDeviation="2"/>
<feComposite in2="hardAlpha" operator="out"/>
<feColorMatrix type="matrix" values="0 0 0 0 0 0 0 0 0 0 0 0 0 0 0 0 0 0 0.25 0"/>
<feBlend mode="normal" in2="BackgroundImageFix" result="effect1_dropShadow_13_888"/>
<feBlend mode="normal" in="SourceGraphic" in2="effect1_dropShadow_13_888" result="shape"/>
</filter>
<linearGradient id="paint0_linear_13_888" x1="17.0022" y1="10.7176" x2="70.7024" y2="50.2737" gradientUnits="userSpaceOnUse">
<stop stop-color="#00DBDE"/>
<stop offset="1" stop-color="#F407FE"/>
</linearGradient>
</defs>
</svg>
